name ./resultDataOpenSim/trcMotMarkerGrf/sub09/grf-03-05.mot
datacolumns 19
datarows 25
range 1.39600000 1.49200000
endheader

                time	     ground_force_vx	     ground_force_vy	     ground_force_vz	     ground_force_px	     ground_force_py	     ground_force_pz	   l_ground_force_vx	   l_ground_force_vy	   l_ground_force_vz	   l_ground_force_px	   l_ground_force_py	   l_ground_force_pz	     ground_torque_x	     ground_torque_y	     ground_torque_z	   l_ground_torque_x	   l_ground_torque_y	   l_ground_torque_z	
          1.39600000	        -46.95779705	        535.79117455	        -36.21735226	          0.88407249	          0.00000000	          0.11456837	          0.00000000	          0.00000000	          0.00000000	          0.00000000	          0.00000000	          0.00000000	          0.00000000	          3.05623812	          0.00000000	          0.00000000	          0.00000000	          0.00000000	
          1.40000000	        -38.95674319	        522.80652935	        -35.21081039	          0.88534162	          0.00000000	          0.11491685	          0.00000000	          0.00000000	          0.00000000	          0.00000000	          0.00000000	          0.00000000	          0.00000000	          2.86037554	          0.00000000	          0.00000000	          0.00000000	          0.00000000	
          1.40400000	        -31.32765408	        510.75463486	        -32.78199097	          0.88666961	          0.00000000	          0.11516555	          0.00000000	          0.00000000	          0.00000000	          0.00000000	          0.00000000	          0.00000000	          0.00000000	          2.62611518	          0.00000000	          0.00000000	          0.00000000	          0.00000000	
          1.40800000	        -25.40765687	        499.53062981	        -29.33669896	          0.88824774	          0.00000000	          0.11532963	          0.00000000	          0.00000000	          0.00000000	          0.00000000	          0.00000000	          0.00000000	          0.00000000	          2.42737033	          0.00000000	          0.00000000	          0.00000000	          0.00000000	
          1.41200000	        -22.08334421	        488.94950469	        -25.43324644	          0.89023029	          0.00000000	          0.11542750	          0.00000000	          0.00000000	          0.00000000	          0.00000000	          0.00000000	          0.00000000	          0.00000000	          2.32177224	          0.00000000	          0.00000000	          0.00000000	          0.00000000	
          1.41600000	        -21.56648875	        478.82262959	        -21.67154013	          0.89267125	          0.00000000	          0.11547768	          0.00000000	          0.00000000	          0.00000000	          0.00000000	          0.00000000	          0.00000000	          0.00000000	          2.33591299	          0.00000000	          0.00000000	          0.00000000	          0.00000000	
          1.42000000	        -23.37438328	        468.99001558	        -18.58146946	          0.89552441	          0.00000000	          0.11550720	          0.00000000	          0.00000000	          0.00000000	          0.00000000	          0.00000000	          0.00000000	          0.00000000	          2.46064555	          0.00000000	          0.00000000	          0.00000000	          0.00000000	
          1.42400000	        -26.49259740	        459.34113183	        -16.53119739	          0.89866609	          0.00000000	          0.11555745	          0.00000000	          0.00000000	          0.00000000	          0.00000000	          0.00000000	          0.00000000	          0.00000000	          2.65717639	          0.00000000	          0.00000000	          0.00000000	          0.00000000	
          1.42800000	        -29.65892148	        449.85592484	        -15.66873748	          0.90191463	          0.00000000	          0.11566473	          0.00000000	          0.00000000	          0.00000000	          0.00000000	          0.00000000	          0.00000000	          0.00000000	          2.87100782	          0.00000000	          0.00000000	          0.00000000	          0.00000000	
          1.43200000	        -31.69906410	        440.63479634	        -15.90526263	          0.90508306	          0.00000000	          0.11584161	          0.00000000	          0.00000000	          0.00000000	          0.00000000	          0.00000000	          0.00000000	          0.00000000	          3.04863604	          0.00000000	          0.00000000	          0.00000000	          0.00000000	
          1.43600000	        -31.83290944	        431.87121932	        -16.94395215	          0.90803023	          0.00000000	          0.11607505	          0.00000000	          0.00000000	          0.00000000	          0.00000000	          0.00000000	          0.00000000	          0.00000000	          3.15193716	          0.00000000	          0.00000000	          0.00000000	          0.00000000	
          1.44000000	        -29.86298773	        423.78908335	        -18.35311716	          0.91068226	          0.00000000	          0.11633899	          0.00000000	          0.00000000	          0.00000000	          0.00000000	          0.00000000	          0.00000000	          0.00000000	          3.16685684	          0.00000000	          0.00000000	          0.00000000	          0.00000000	
          1.44400000	        -26.19343317	        416.58943308	        -19.66137644	          0.91305992	          0.00000000	          0.11660198	          0.00000000	          0.00000000	          0.00000000	          0.00000000	          0.00000000	          0.00000000	          0.00000000	          3.10518946	          0.00000000	          0.00000000	          0.00000000	          0.00000000	
          1.44800000	        -21.69109379	        410.42027136	        -20.44336735	          0.91525919	          0.00000000	          0.11683627	          0.00000000	          0.00000000	          0.00000000	          0.00000000	          0.00000000	          0.00000000	          0.00000000	          2.99994249	          0.00000000	          0.00000000	          0.00000000	          0.00000000	
          1.45200000	        -17.43212242	        405.37387159	        -20.38419057	          0.91742042	          0.00000000	          0.11701853	          0.00000000	          0.00000000	          0.00000000	          0.00000000	          0.00000000	          0.00000000	          0.00000000	          2.89582031	          0.00000000	          0.00000000	          0.00000000	          0.00000000	
          1.45600000	        -14.39910809	        401.50153495	        -19.32032805	          0.91970718	          0.00000000	          0.11712651	          0.00000000	          0.00000000	          0.00000000	          0.00000000	          0.00000000	          0.00000000	          0.00000000	          2.83705525	          0.00000000	          0.00000000	          0.00000000	          0.00000000	
          1.46000000	        -13.21666519	        398.82157027	        -17.25503961	          0.92224167	          0.00000000	          0.11713891	          0.00000000	          0.00000000	          0.00000000	          0.00000000	          0.00000000	          0.00000000	          0.00000000	          2.85538899	          0.00000000	          0.00000000	          0.00000000	          0.00000000	
          1.46400000	        -14.00199053	        397.30553447	        -14.35026686	          0.92505230	          0.00000000	          0.11704332	          0.00000000	          0.00000000	          0.00000000	          0.00000000	          0.00000000	          0.00000000	          0.00000000	          2.96125370	          0.00000000	          0.00000000	          0.00000000	          0.00000000	
          1.46800000	        -16.36109936	        396.85553228	        -10.89933705	          0.92808963	          0.00000000	          0.11685212	          0.00000000	          0.00000000	          0.00000000	          0.00000000	          0.00000000	          0.00000000	          0.00000000	          3.14067509	          0.00000000	          0.00000000	          0.00000000	          0.00000000	
          1.47200000	        -19.51481774	        397.31093484	         -7.28414427	          0.93123091	          0.00000000	          0.11660714	          0.00000000	          0.00000000	          0.00000000	          0.00000000	          0.00000000	          0.00000000	          0.00000000	          3.35895895	          0.00000000	          0.00000000	          0.00000000	          0.00000000	
          1.47600000	        -22.51388760	        398.49589469	         -3.91929228	          0.93429580	          0.00000000	          0.11636550	          0.00000000	          0.00000000	          0.00000000	          0.00000000	          0.00000000	          0.00000000	          0.00000000	          3.57022796	          0.00000000	          0.00000000	          0.00000000	          0.00000000	
          1.48000000	        -24.49099867	        400.26805996	         -1.18946366	          0.93712992	          0.00000000	          0.11618179	          0.00000000	          0.00000000	          0.00000000	          0.00000000	          0.00000000	          0.00000000	          0.00000000	          3.73006211	          0.00000000	          0.00000000	          0.00000000	          0.00000000	
          1.48400000	        -24.88579196	        402.52808329	          0.60832105	          0.93963180	          0.00000000	          0.11609555	          0.00000000	          0.00000000	          0.00000000	          0.00000000	          0.00000000	          0.00000000	          0.00000000	          3.80753894	          0.00000000	          0.00000000	          0.00000000	          0.00000000	
          1.48800000	        -23.57714161	        405.20391887	          1.30722871	          0.94177869	          0.00000000	          0.11614373	          0.00000000	          0.00000000	          0.00000000	          0.00000000	          0.00000000	          0.00000000	          0.00000000	          3.79322792	          0.00000000	          0.00000000	          0.00000000	          0.00000000	
          1.49200000	        -20.89023070	        408.25232707	          0.89155516	          0.94361709	          0.00000000	          0.11635312	          0.00000000	          0.00000000	          0.00000000	          0.00000000	          0.00000000	          0.00000000	          0.00000000	          3.70102622	          0.00000000	          0.00000000	          0.00000000	          0.00000000	
